<?xml version="1.0" standalone="no"?>
<!DOCTYPE svg PUBLIC "-//W3C//DTD SVG 20010904//EN"
 "http://www.w3.org/TR/2001/REC-SVG-20010904/DTD/svg10.dtd">
<svg version="1.0" xmlns="http://www.w3.org/2000/svg"
 width="512.000000pt" height="512.000000pt" viewBox="0 0 512.000000 512.000000"
 preserveAspectRatio="xMidYMid meet">
<metadata>
Created by potrace 1.14, written by Peter Selinger 2001-2017
</metadata>
<g transform="translate(0.000000,512.000000) scale(0.100000,-0.100000)"
fill="#000000" stroke="none">
<path d="M262 5106 c-92 -30 -138 -62 -195 -137 -56 -74 -79 -205 -52 -303 19
-71 73 -133 392 -453 237 -237 333 -339 329 -351 -2 -9 -20 -78 -40 -152 -20
-74 -62 -234 -95 -355 -32 -121 -82 -308 -111 -415 -28 -107 -60 -224 -70
-260 -9 -36 -27 -101 -39 -145 -11 -44 -55 -206 -96 -360 -269 -1002 -285
-1065 -280 -1107 3 -22 13 -53 21 -67 33 -56 76 -72 453 -173 201 -54 409
-110 461 -124 52 -14 102 -27 110 -29 9 -1 74 -19 145 -39 223 -61 837 -225
862 -231 10 -2 119 -31 243 -65 124 -33 268 -72 320 -86 52 -14 127 -34 165
-44 39 -10 189 -51 335 -90 146 -39 299 -80 340 -92 140 -38 193 -32 252 27
33 33 40 52 97 267 35 128 65 239 67 247 2 9 19 72 38 141 18 69 49 183 67
253 l34 128 50 14 c28 7 138 37 245 65 107 29 233 63 280 75 47 13 155 42 240
64 180 47 226 68 259 116 39 57 35 108 -20 311 -27 98 -51 188 -53 199 -2 11
-19 72 -36 135 -17 63 -47 171 -65 240 -18 69 -43 161 -55 205 -12 44 -23 87
-25 96 -2 9 -12 47 -23 85 -11 38 -29 105 -41 149 -12 44 -39 145 -60 225 -22
80 -49 182 -61 227 l-22 81 21 77 c31 110 33 162 10 209 -21 45 -39 60 -96 86
-35 16 -42 24 -51 62 -6 24 -27 104 -47 178 -20 74 -52 194 -71 265 -19 72
-44 164 -55 205 -11 41 -21 82 -23 91 -33 137 -109 207 -208 193 -18 -3 -134
-32 -258 -66 -124 -33 -232 -62 -240 -63 -8 -2 -40 -11 -70 -19 -81 -22 -777
-208 -855 -229 -11 -3 -61 -16 -111 -30 -87 -24 -94 -24 -145 -10 -30 8 -70
19 -89 23 -60 15 -303 80 -336 90 -17 6 -40 12 -50 14 -10 2 -113 30 -229 61
-115 31 -268 72 -340 90 -71 19 -160 43 -197 53 -36 10 -82 18 -100 17 -40 -1
-98 -23 -98 -37 0 -5 -89 81 -199 190 -109 110 -214 210 -232 224 -77 57 -212
81 -297 54z"/>
</g>
</svg>
